<mxfile host="Electron" modified="2023-10-06T06:43:02.937Z" agent="Mozilla/5.0 (Windows NT 10.0; Win64; x64) AppleWebKit/537.36 (KHTML, like Gecko) draw.io/22.0.2 Chrome/114.0.5735.289 Electron/25.8.4 Safari/537.36" etag="UmFvbLsYwYaU60JD_O-9" version="22.0.2" type="device">
  <diagram name="Page-1" id="plBdEhP5Hm0ZhWRDxCT0">
    <mxGraphModel dx="1036" dy="606" grid="1" gridSize="10" guides="1" tooltips="1" connect="1" arrows="1" fold="1" page="1" pageScale="1" pageWidth="827" pageHeight="1169" math="0" shadow="0">
      <root>
        <mxCell id="0" />
        <mxCell id="1" parent="0" />
        <mxCell id="vgPxkIQjYGgDSlGmg2nc-10" value="" style="rounded=1;whiteSpace=wrap;html=1;fillColor=none;dashed=1;dashPattern=12 12;" parent="1" vertex="1">
          <mxGeometry x="190" y="580" width="310" height="330" as="geometry" />
        </mxCell>
        <mxCell id="vgPxkIQjYGgDSlGmg2nc-8" value="" style="ellipse;whiteSpace=wrap;html=1;aspect=fixed;fillColor=none;gradientDirection=radial;strokeColor=#00FF00;fontColor=#66FF66;" parent="1" vertex="1">
          <mxGeometry x="330" y="720" width="160" height="160" as="geometry" />
        </mxCell>
        <mxCell id="vgPxkIQjYGgDSlGmg2nc-9" value="" style="ellipse;whiteSpace=wrap;html=1;aspect=fixed;fillColor=none;gradientDirection=radial;fillStyle=auto;strokeColor=#FF6666;" parent="1" vertex="1">
          <mxGeometry x="264" y="610" width="160" height="160" as="geometry" />
        </mxCell>
        <mxCell id="vgPxkIQjYGgDSlGmg2nc-1" value="" style="ellipse;whiteSpace=wrap;html=1;aspect=fixed;fillColor=none;gradientDirection=radial;strokeColor=#0000FF;fontColor=#6666FF;" parent="1" vertex="1">
          <mxGeometry x="200" y="720" width="160" height="160" as="geometry" />
        </mxCell>
        <mxCell id="vgPxkIQjYGgDSlGmg2nc-5" value="" style="shape=image;verticalLabelPosition=bottom;labelBackgroundColor=default;verticalAlign=top;imageAspect=0;image=data:image/png,iVBORw0KGgoAAAANSUhEUgAAAgAAAAD4CAMAAACt+K6VAAAAsVBMVEUAAAAAAAAAAAAAAAAAAAAAAAAAAAAAAAAAAAAAAAAAAAAAAAAAAAAAAAAAAAAAAAAAAAAAAAAAAAAAAAAAAAAAAAAAAAAAAAAAAAAAAAAAAAAAAAAAAAAAAAAAAAAAAAAAAAAAAAAAAAAAAAAAAAAAAAAAAAAAAAAAAAAAAAAAAAAAAAAAAAAAAAAAAAAAAAAAAAAAAAAAAAAAAAAAAAAAAAAAAAAAAAAAAAAAAAAAAAAk2wLSAAAAOnRSTlMAMOz71wMFFvL49Qjcg0ALVSLgGuhPW+TDvrSvOhG5ZG7PJ8eqfCvLiDV3RQ6alUqMptQeommecpBfSzb0YwAAFj1JREFUeNrs3GlzokAQBuDWiYgHnghJ8AARkmjUxGuT9///sK3aqtUcrKIM7kD6+czHLqZn3p6hH6zZbYdhOO4ONGI/SXnmvjmeXcGefnO3C6xCjVjO1RrBvYl/Ed58NCaWV213WMVJ9q7VJJY7ZddHXBWHayBnZpMKzqLPC8RyQnv3cIHbXolY9pWsOi60ahHLur6HBB4axLKsvEFCky6xzGqZSEzfEsum5g5SDPknkEnjFSQxZ8QyZ6lDGvGLWMZsBWSac2KYLQEkczgqzBID0g25ArJjihTc8yqQFSOkYkcsExoC6eC9QCasi0iJ4GQgAzQfqbHLxFRnIEUTYoorCKSpR0xppQekqsOnAWp7R8qmxBRWs5Gy4jMxdblIXUBMWVoHqTO5C1BXC1dgEVPVEFdwR0xRXYFrWBNTk4sjOBPKvyGu4paYkmoVXIUYEFNRA0dwIJB/U0Srz7fWdm5DmhdiKnIQwXwM6Q/N6nATkG91fGO6Ndp7foUcVR4PVZEm8NXimT4JBKTgl6RU1MYXeo++6lW5C8ytJ3xmh1Ef2XwUlFd9fGKPKUrXR3ILYuqZ4SO9QNE0QyAph5h6enFD2/6K94F51MIHr3SENq0iEY+YeiwcFMt0VNtBEj4x9bzjwKVTZiteAnJmhL26RidpW5OHgnJlhL0txdEMdFzmnph6DgVQrFE8A0PnbWBubPHXG8U2MIp8RzQnDgXwRGdoujc414bYKeWG+zK5rZu6ENWi7Q03hvXUpDSN9i0gnae0dATOMid2TOhObEQQ3sIqU1pGCQZ2usENZwFylPovHRwh/CCkgzTOAWZ0iYJRR1xvxKJ1jQ5O89wB7ckvgCVdKJzeCsTxSCxKuBGIR1+sSTZLxhX+5vLRr+AUg9h3641AfGLRJblasnr0Wt/d+fr/uyJeai/dxeRuVbdNs77ynUVgFdSfQtSCKs5TDWokU09qVldq/6buTtTThmEAAIs4NzQJIW24KUeBQqDhKO30/g+2fRsjLetXEks59j/Avo05tmVL8vo1nrV9S6JNCG0G6phf75+9Sj9bMF9gdmofGK3xzNKB0WDSf3kYvT3dxe/b8HLXlIvW49DCbyye5lBRjxbKEHc6AH9h0BzyoZuXuwZ+9YeOSLN/rmKLmvoJZXWMHJJCPcjHGs9GwG3wFGA6Zly5pcCYorzGBJjMc9+kv+fVJGSwtDE9K65WdWpLRQqlBjyauV/WNfKZYrRHBbNRRhV61NRoIFZiBBjJrAK5mBAKQ7j3z53KtCmJxkgVHICDi38JF/KwwuSskc+bhTLMivSq0rpIN46Ag7i6D+bWxr8c4BL1UFZciWXgDjkcgYOJyS49B4NkgPWByWGP8oYulM4RFeq95+d7W/eA7DPMJESKRenRgOsjD8UAun2+Wbs7vKgBi0mANOMBlGuJv1Wk3DJZowPgpyvc/QEMH6nadShT00IuYg5E7ijACwPYOZhoAoP69L9/wuSEv1ViH/gQ4gcOsIsxsTKAbvPfv19wEMhHHIDA3eEnj8BOxQ/spQtEL8hCPEM2ldwBUNOs3E7uabsT/GzcApIoQB5qHUqihcgp1EDaMf/y3Te8okZAEf//L1g4yMsh5wIlTA2YdfDaqSL7Z7sF0ioyhon9NzUVr9kG8BqILwKX0neA5VYpjJHXnr6d8pcvtdWsexoNgNncZ+0Ya1jIxzKgDK7Aa0r3fbNAaQbxaxJvOuRGc+567elwt+uqSfJpRZ43fYIy9PEzcXR0+KXWRUkvIKdBCIkpM45Fubbg5GtQghF+skvi+FeBUla0FrGWCxIoi19E+HhY9YGGfgqg3MMHaxNl7ECKQZiRaRHBoBonKORSNfo+1p/AJ3O1wN5bLcIVIOnaUehV2T8voAQ7vAiacEHozB6ClIgwA5CepgkJMaUsv7f7onZR1KF4vSQMeYZ/vdqYldBAik04/KGcgA0J9QVypg78EnlDvPIMxeve6J196GJWEUhZSKRpUCypK+8bynnS4Kx2NQRGULwOni00+Np9A7NxabuRFRTDp+YGH1GG7cEHI7vsevX27RikvjIxCw2keMVuAhykhp1TlBBeTfPPQclNi9ppNt/Gu4WpCZBjiEJXwhM56vAxu64BV2pKuW3LpukmwsPWwpRskDQsMj9qYFPXXU1gVtbq+5TsHhRvmvYYshWbmIoCkn5I3M+R64OsAUiKMKv2/MaNQheKN02/FY7S9WIMQFJdKe5DaJnk6cbFbIIf8DV9j4SIlKqd6RjaOZp4i08/ll5D3nb0/BUds7CW0e0DhQ4Ur53x9KXuzUz8VgNkGXZRCXIOnqkgT2Bq4thMsxFrQ/E62Qtx9XW8EPgv+m8aFxQQ63uOYjYbUxKzOXzLK3EADOWO3yJnNWsI7pd4DKWYLOkVy5xrYirWaQI36EF5b9h0CV+C++w9bXsL32ZL5X27cS7J42CzxBsBphDeGXDbe3kDYMYx57qtSa3vrIfkeUzfF/GqZ4/nAj7EW0TvXoc0nPKWgCNf5KWF9Gm1L/AP8wB5ecEz3wWKBn5LdF4NSEm3SxsAm8vOjczhOM3Y5H4oUudqEqV+FwptvAjSq4vSwsB3vlyELcdkMghS/vfQU3mH+STUK53YO0A2NerfiP5z1NhqzGZMzaLDCK6xFsNbTaBZ4Cd2o71bjtYtQtuSLhRvxfa9OUxXWt18S2WGeHbHc4bWefDu1/3awWX4DGdQvFe2o5ftpdiOpnkJ0vrAz8OzRp3nDM0HBj3qt0P/QWZsVcZbtgrevQ7cXJ+vSeCQL31BLS8hZI1MYYDD1ttLH+fXN2OJZz22zzYGMl2U9ohRbYaX7HiaLV95w7PAP+wm8Jpf/uQD2xmaD2TzsnIC3Y3g6s6vBXjmryKm2JQ/Lupwzi1Htoour6ROQcYYEx5fn4mwDzRRmE9H9wc8U3XGrMKYLRZ/hULpU8bi5C1+YPe5Hg4KBsBnELC2H9si1xowo3+E9MKGGX0FSDR0oOndyJSmDdId78MTfa7mqGsoUj3A38Ric1LD7pq105BHztnjr5muXS6aWrwRRQw0uoV/nA4ggTjNDpvAQLvf+Va4aC8UpiONR6blOqFNWdsP6iMVz3y23nXWUgcJlAE81oGVFvNUOmsL7s4pI0Tk+yfXVL7ODh4m2hEUZcafeJFcbDX4JmyLqaezwnnCXDMZX6F+wg+GGhSkmyzW/ANgD2Qxb7L0kXNbqe3ZumMmOepFx4I7/orkJNYech7bjzgTwZUB0N2zdve5/8nefS4pjgMBAG4QzsZgcs45Z4Z+/we7G+YQM15gHGRLh/f7u1VbAzYK3S11X0vWByZ+KcsQjU044eclftqwLN1K5hmWAbWBXQxIy6VyGqqtiwEMTPs0TRWJSyiHsaUCuwjegF3mZoJMS+/H+GmZAQApA6wYqUjvirIdbTNYZheJwnTdhqXA6SW2B0/NcO4ymdEwVSRSdLBmaMuywL3NqBmRsWN8E9sunBcgG2FhGE1BqE1ght6e22GdvauxmQDMDMu/KwuMXaItDNsT9knoFdt7j22dxeZoSlgfO/5w1D6JvS5/akBrI1hJEMazGI0I6z3wa0F3ACe2P9UcMDaO+K6wBOv7GKQ+6wSORCeBXQZ82rLPLed/fE6xl+WvDBh30W6zv+HDVoPeoNQOo1t4l44ozBdlJkTH1ugZORaUZAiVfJeAMdKpFkZpwSyEHg+ZZPSFgWmm1ahLtuk7ZziIWIH6epoLYCdP6K6S8UtFbIiQvGN4H0OD0AQ+S036CJM98CrTD6kzX535hWaKyuN4WIMwu49B6rrYagUbxM08eCPVwurNOWd+rdOBT9eIJbP7GDoYViCz47fPtnTCm5oEbLUYly3POZ0PbRYYBQMU1UW9XeCE+bjp7/mbTWCsp+GnwgIoBulK0oOoZRm9eQc3Q0nwDt1dBdySD3ijjoAScwGd5tc1psbyYEhXhjDky3hjjsCdRQtvSBFYowUrJAEMjLSAuYrg8fbyIth2ItwlzCiJN8k1uNHbhd2IoYhXfRYL6ApdQHNwZnCse0aD7SFp6HhDNjL8qq2H35Gxxuz1OtIFNA9yN3C17F6lafuwzHWkugl4LV+Pog+HrTOqMszTr4+PKQl6H0PdU7A2+BtAVgo8lxmq0fRhGTKKMQ/oUMLJR8Chck2v9wxTQ8U7dZKHx5RhIaqOvEaKSZBxTYNKvCxygbI4hun9ewje+5vUsxlwMooDDb8hbQjTHK+6EoPthNYDfoqB3sF0VA3wlT7+oLeGazoQSPv1sKXjDwULwjVgcNpww3CqCjqJt4PExJoQOvkD/6Cb42q1Ms5p+IdKHn4hwPItQQL0SGD+QfL+m46UIArrArqlDSUI3RmvDoFPwVrA19F3Mc8x2iVMc0kCtGhijUbArICZriVwJvn9Hdtq1EuYaQV/Z5YgGlawawz2atD5k3F2K7kHb6ocljDrCr6WassQlQNezQI27OBviFdVXxPAzoBITZcqPqPV1xK4wr8SsoRXLRCAPPaR0O3pNAQQMSN7KuOfkoNLE6J19J9QVwq3l0cEIx0/aVNwzejSNDYPvcumltLxi5pqbS4jCaJGT0OUAkwfYujgVU4Bt050AuAok7ftvWIANwnicw9dxKuxDGK4HcOpyt4GPzKFeNvgVd3fBEASIIp90tOmdE7EGsG4yZi+JoHabf4Ux5p42NQlVHqvVdxZ6GMP3UYRYsAOQ/dV9IkkXpn8Yxj8rfCqIntZcws5f27dptEbSbzSxZnBOMqYXm+NXaRuX7RYjAp+OcnwSlajBbd//csieFXyeGapL8oOgGru8EvfhqeMj3vB7V9XaW835U/wShUjBPRDPoVf1KMEj1m7+73Lf32RK15OsJ7preoCUujjHc/hgdEW/z7/54dXyj33zfo2IKRmFW/67YUzBF/DG03I95ebhoZX5ZHb0641UTfQ8gkpvTWz8nClWOeailShAREwhPuPfm1JpM7d3KiP2F2AsC4qfqcVTLOs4w8tBSJg7/bARqsEIaMzO0lL8JTSwi+mAgLrVfEltSNBBLIqq41ynuDKgJCl6dSZgCeyBfySE3AD8EMph0+RUx4ioAwQMScxu4EnZUHI0vezS3t4INGiNWuiP38AuW3iQ9qpBxGQzyrD291S+Gm7h3AdCX0FDpbk+EDFGt6M8/A/IM0PSXQg1WMTIiC3c/ilDwybD2gfeQjVWkWqfLqMDLgyEu1DAal6Bv4n5MZssFPxSk/V0+sFRGFxziG1huCqeKMtexAmu4/fkfJuPN6VCX6jneF/xlBsO5+BqIxWKn7TlSCoBn7XKsoQHjmt4Uvjv/mzV5TOGB0uEFQFfypvEhCeXh2fS3ZEDf+IoFmqEaSY3fKcxT/thj0IzbRO8KHCTODoD2/7TovgQ9vAx98fSk0aEoRkP9yhk1bLCpf9FYVsTbr4XDZgvc5ThUOpCSHZX1aVAp10WpP1/2bpH7VRp67iS2ov0BbwJdJPWwaExciPEolRXqjCP6HY7UMZf5dqBql1foGmvBp/R+fI5S+nHLrUksGfzBjdUWvn6d8FemSU0tJELwYy+CHXkHL1EsR3ky6lDfCl1wZvMutNFz3bSuCddECvCtv2HmJoX8Ws3xTYqQluSY1hRUMPAgXQ5S36kloVY7ZfN86q72PqJmI5C25kiqcC+tdXwJtFC33TWh3xM7asGMccfkr432V1i/CLTLauYTBlC7zo7TCY8SwW74AyK+CXQYDeGZg6Gq8yy1sdgyNDGVwrqRhc//jmc4FcrBOkpkESbTkZnsh0TGRk1wB38gNkQ1314FdZG3yRO8CTUXRUfIylAIm2GTy2GCaRHbLcu/pik8gMGfTgJWPjt3SxiHUFOLE7NR2dOt5roW/0JjwitQvIlvaxh9fkkolMkVUTnpubiDvft4QlLxJETsk+CcPoI893ZL1uzdyrIHtk24DnlGEOmSuU4IlG1f9VkSNyXUBnJYiQfVmm8KndwmdjPrQe/ftZw3DkJo/jts1LTcMwPB6r5WwFA7TdOuAXM6KlpjztDMr4Wk3yFAOiTPhTs4YhStbPVhPupF5xMiYYmnID/mDQ+Y0kfF0vdaOfLAjXYp2u6ujCQQK3SuRlZ46eiaFLdmvb1Wa13FZTGoaMtF/9BFpBK9XKH5YE4VCKHx5+GksJ3CkSvEs8ukTk3aTBSdH8t6dvo1PhlG0CY4viaofe1DLgxoXgnfmoyc/7+XjR1rTc9HPPthPpT+YZYCXfqRL0rttzkzzE7ybg0HjH5//gc879li4aY3xGq0xYHMBYtPvok9oG6tUh1+d7gN77jf+PIyVS2WcUZYsvke6qZEMA9lLHAKojeEFqO56vKsMPzRS+KTKHnyZIkbWXVm0ulAfnqQx+KCeCwZCTDc+su+hQh5/q+LacdwJP8U63wKUNuqW2hpbhOcWgYnCkPpfgT5l299eB8YhvrAU/5fBOL7rtbO6JVkl7KVqd7pCRgrMyJl8a6PhAwtkI5Z0dXwzmpAO/y1fQu+SgtAA3jDRBhkhqmz5m59a6eEzXTXwsKTlSHG9NzT/YB1CDJvyimER/tJqLY632GKNXc9QIvbktfGfo+EO5CK/s6xhAIa0Ef7vYG8I30g7f3fT1gFdtwDPKRsNg9MkCnjsT5GEO32Tx7VWc9w85VR+P1dOThsGVSwE3F+w14Zsuvj/r2UaQKqwch0FlK20iI5WeWM/f/LkmioEWfCOp+BAZn2Yla5pIWNnzqqIjQ/pZgj8NkZNBTGJA34wchdGRqyrwSYy5dwh3CsE4+HAUBUSvbP3ZxJGXItx1MBaSBvd9L7k42z9zY8NdFeMhC3cK8jETJPyuS0A14zEDONY9OeRjCFSmgNyM4a6EMaFnRFj4duDmjPxs4e6AcVEUYf9FqxMkE/lJw52JcbGEuyJyQptVWshRCag8xoYJdz3kpgVXK+RoKkIsIno2UJKG3Fz4j7xNoNIYHyUx8h85g/fIW4C7AcbHSpDPfeS5CHHmRt+2GPiBMYgx8qVoRpqTA1ByXMJAn4gB1AU5agAskaN0LDcB1y+eaiBHG4AWctQGaopx0uGfDbhKcS7CsUQIiPCwhLskcqTw3QXascsFP+hn1keO1lzfPyIDtcU4USVBPvkMdOQnJ0BalBMbqAlytASC/FSBsjFeikC1kaMa1xfgFMNigP/MBKmFHgNyNARqifFyEGTwM7kuAi/xDAR/GgsSA01CBfmxxIiG8KAKsv5VueYi7JiGgT7tgaogPwQSyA2RuZ9M42ctRjEk4VmNbwI1xriZiZEQRoCRhpy04CYTp1zwl5MYgYAkvbaXg5UYW2E+xmIEAir0ahAOzkL8BjgpixEImMAn5UNFDopC/AY46YsRCJjSjpyTWjcVsV5My4GulkIEAvogiPicCvpnMCA2GLZFM2syDBIw4sYBONkZBsFEiCnDYAFqViMMqGCcFUZ/wCXPMHjAyDgeCA6YGQf8hB5mw0F1ua3g8D4jGB3ooZZ/THQG4sq6luwMgwuIjqTBQHVuhlGADixHTgpQlmUYBZhAZoT0BZn1RvM/dsBtPgKWBjNLD5q+9yAErHwaEsO4NcjMo2IqzDAKCAB2NcbhCZQGY9EPAFuWG/p02MSuAAAAAElFTkSuQmCC;" parent="1" vertex="1">
          <mxGeometry x="363.62" y="775" width="100" height="50" as="geometry" />
        </mxCell>
        <mxCell id="vgPxkIQjYGgDSlGmg2nc-11" value="Product Owner" style="text;html=1;strokeColor=none;fillColor=none;align=center;verticalAlign=middle;whiteSpace=wrap;rounded=0;fontStyle=1;fontSize=14;fontColor=#FF6666;" parent="1" vertex="1">
          <mxGeometry x="274.75" y="580" width="140.5" height="30" as="geometry" />
        </mxCell>
        <mxCell id="vgPxkIQjYGgDSlGmg2nc-13" value="Scrum Master" style="text;html=1;strokeColor=none;fillColor=none;align=center;verticalAlign=middle;whiteSpace=wrap;rounded=0;fontStyle=1;fontSize=14;fontColor=#6666FF;" parent="1" vertex="1">
          <mxGeometry x="207.74" y="880" width="140.5" height="30" as="geometry" />
        </mxCell>
        <mxCell id="vgPxkIQjYGgDSlGmg2nc-14" value="Developers" style="text;html=1;strokeColor=none;fillColor=none;align=center;verticalAlign=middle;whiteSpace=wrap;rounded=0;fontStyle=1;fontSize=14;fontColor=#66FF66;" parent="1" vertex="1">
          <mxGeometry x="335" y="880" width="157.25" height="30" as="geometry" />
        </mxCell>
        <mxCell id="vgPxkIQjYGgDSlGmg2nc-15" value="Xavier Clivaz" style="text;html=1;strokeColor=none;fillColor=none;align=center;verticalAlign=middle;whiteSpace=wrap;rounded=0;fontStyle=1;fontSize=12;fontColor=#FFB570;" parent="1" vertex="1">
          <mxGeometry x="273.75" y="640" width="140.5" height="30" as="geometry" />
        </mxCell>
        <mxCell id="vgPxkIQjYGgDSlGmg2nc-16" value="Xavier Clivaz" style="text;html=1;strokeColor=none;fillColor=none;align=center;verticalAlign=middle;whiteSpace=wrap;rounded=0;fontStyle=1;fontSize=12;fontColor=#FFB570;" parent="1" vertex="1">
          <mxGeometry x="339.75" y="825" width="140.5" height="30" as="geometry" />
        </mxCell>
        <mxCell id="vgPxkIQjYGgDSlGmg2nc-17" value="Prof. Fabien Vannel" style="text;html=1;strokeColor=none;fillColor=none;align=center;verticalAlign=middle;whiteSpace=wrap;rounded=0;fontStyle=1;fontSize=12;fontColor=#FFB570;" parent="1" vertex="1">
          <mxGeometry x="209.75" y="825" width="140.5" height="30" as="geometry" />
        </mxCell>
        <mxCell id="vgPxkIQjYGgDSlGmg2nc-18" value="" style="shape=image;verticalLabelPosition=bottom;labelBackgroundColor=default;verticalAlign=top;aspect=fixed;imageAspect=0;image=data:image/png,iVBORw0KGgoAAAANSUhEUgAAAfgAAAIABAMAAACcL2OlAAAAAXNSR0IArs4c6QAAAARnQU1BAACxjwv8YQUAAAAVUExURQAAAAAAAAAAAAAAAAAAAAAAAAAAABIBAKQAAAAGdFJOUwAdRGqWzWUuRq8AABFvSURBVHja7Z1LQ+I6FIBJH6wZlK5RtGscx665il0zI2YtQs///wl3gUAfSZq2SXNCmq0zlI/zPjlJR6P+F1msPwEAsu3b/cipRf5QyK/tnTPo3gtU1nbuiNSBud4m189+Q4GzDtcufPICgvXfVbP7FMBV+luoW/+ulv0RwFn6BGTWVWo+kWMHWF0hewqya+4wOxwmTtr7z/p2mP3KzP6xGTtkV6T4M2i69lfDHkDzdS2K77VgvxbFbxLkcmvnoqO/qlRn1pL9GnyeD63X0nqDp+3hD64a/DWEu1kXdstF70G3ZbXo047wB2eV3m6H73VmtzjWp93hrU3zZgrYbe3peKBk2VncJWrgN640MJh1vWM5vfWJTqyK3UKX54O69bn+bZfXS0Ht2j655+3yaf6Tc94uvz7sUP4ItKzMhlzXA13LAtWPtcHjn9rwAdylT3TCI29vBFrZkXu9VC886pmVEHQvxMk+1Q6Pt87TL3i8W/ekB8GjVfwZ9LKW7goe6U5OT4JH2dYkfbFjbGtGvcHDX1ctHmW4m0GPa+Ou4NFZfa+CR5bk9it4ZLE+hJ4XpjSP9g3/7bDgMW3dp/3Do4l2Qf/seFyeAcGjmVbyTbBjOY+QGIHHofcemFko9D42BI9B74khdhR6H5mCx6D31Bi8+TwnNMaOYCo7NQcPbiY4SFoaiUl4w8HOM8luOthFRuHNFvWEmoVfORrnzBt9ahh+72qcMx3pY+Pw5jrYxDi7wfQ+Mg9vrn1PzcMbS3MCQLCcTOtNe7wHDPDGPN4NAnhzOZ75JMdkjmee3uSAysw4vcmqNnXV3Ztv5ZjuX8fOunsEojc7nGNY9GabmKbDnbt7NsbHskJ3Y53xho7hPavE3UCvTe+zqVSr6OsqN+xWcoHE9BSulmbet9QrQMyPKOjIc47naCQuSDc9lxTqi2D1SYTpIycajP6v/EePrs3oL4Zcb/amJ+8TLQYv+dmmx/EiPQYvp/imj9so3rz5r1GfcHVVHq90VLZu9sX4GTuV7P8a6pXxKdRUh6OX/PSv0dW4+31jl2IcXpm7/2ieRxg/dBDqsneJjzcOH+iIcZLNIuMnS5XEumzZyqyMw6vo44muufQww3cvbbKntrHU+gMX2Wt7j2oePumGPulgV+bh23eysvVdt1/XPHzLLOfzTfbV8yFi+HELkb81ucPbQwzfNMXbNr68PMULHzQjV2lY5uEb7NK/zdX+vObhpfPbj7b9RoI3w/OU5HGtjN48POmcvrc2egT3Bcmwv3Z6Qoi1npeqbJ70WJYN8NlSk3J9mYdPtbPz0nsL4BVsKkVI+/a1Na2KDbUQ6Y5NHbySFzL4aOHjFh1pNbnEEje8quybotyfF3czlN3Rm6KczBDDL/Vql3l2QSvnr95nZJjhFc7JhRjn8ITwCv1RgLOXwYdXWXZ4SOsaHrzS29gJ0tSel3uqTbyRpvYceMXeiOJM8DjwisWS4sxx2PCqY3CCM8dhhyHVb96IcYZ5NrxqlYxwhnkmvPKm8hhnmGfCL3twLBuk8OpLjhBnpGPB7/p4yAQp/LKHh+B4o00v38vH6ewZ3+u7j4d8IYXX4Ic9jH1rJvy8D/gJTngdrojg9HdV+H0f8N9I4b/6gN8ghdfiilDmdwz4eR/wONirjnjUA/weKfyhD/gvpPD7PuCXSOF3PcCjeU+nV6eR03cKkMnM19+8UwDYPtXCf2OFL0Vg8nJ2BjVh4Obcn95OauBXWOGL5uhR2SGV/P0o2VwMj+ZVjUQEXzoCv5RNF8o7fQRloKvCF4SWSjvDSBgwCcbclgGfl9lMPgdIhdseBKfWV+BFyZ8gRFFhluzh1PpK/pH7S9IFfs+FX6GFz0Q9HoHMEvlrYyY2wJ95PtdrWpeSj0//8p31S/kYMxwRvF9IbrwX8agKoaczSF5aFb2PMK9nWOsF/mdbeX8inq6FKZ53+XNSEXGAbGu6Dv4nChxaWChJy8YdYAzy1Qh9hg87KKlX5gzwFXTHdcuGj7t4p6j0n0Nc2/K5FTPjfNIlLJGSvw9Rxrm8iTLgW8spKsKPkQree6FMycedOrleUe3HOAXvU05hE15ERxbPkr/C9Pl0vD4pOLxI05RXR7lzCxJCT1m4R2VP2zxeGhl+ISeKNQz0dl+ClNz/fM03NCTKkds84cPnsvKYFS6llzjwJS21U9tnx/2NMUc5JjyRTs1mfK+WnnKI6eL+Dgk7kRg5DqWT8pT/Mx11InugAAAHHKVNIHEGIJHNTzxB0arjnKYGra98cyrbgQkF+TvGHWpaf+6HSO8ujvm9GqL1EEuHNKxmFNyXbsHE/C1+D+HYcSBxziCQ7romfK32EU6fRrrgV/W/svGeRtKX5EOEZw1+AnN2N5q+8L6VEpsfIzxfRHNKeu657jR4+wjhvQlFPX9gq6yKOB8jPFBZ0maPsmwxkZ1RE2R4CcLLocrfgrwwhipU5PYJvhPkRCrfkK/qIq4vO8MfnkYkQTGHKAffoJ7nZm9xfq7lVPajyG7rPM/Pl5WoxGa8XykszPTEGGKdJHy7Hh7jSftiTJxbAT8iC9lbbqd/2JejJnmNCK2CV+BeaO52tRBDTd8j/IjcT8qpoDOSZ+XBZuF9Q/CRTd5eUyU9cVLyqUVJjuZi0i14D0VhYwg+QFHSema6yGMUzWvPjAhiFO1bYgY+RbFjRcw0kZF0b424XQ/JMKIR+ADJpgU1IYMIyU6lkTwzwbVXNzGgbuavO44NfA+C5QD92MCumY/lyEFowPxCLAdtAgOON8Jye4BvIOSiGUQlBpItLM7+/E16jHUenttS+i+wAjzny+Levc8Yz2mTce8eL8ZzuM7vvbZO8czekt4mAn9NUHUy8oLQ7n9eTgNvmI5Vxv2cepqdVD3EdHdCmHsl3fS91alh6Xwie8LTySjkHAAZ1SeSk1/d/txBgOUkddruCMTNz5jK9KmRfiF6cdOIMRW7k7Xh1U++JuMtxkivAvTbTIKTn6Erj8pFrTHGe/0Zei8VhILj67j/UMnidIzz6tOKPUrBjxtOT49xXn0qvCBJG/wcC3z5/isd8CFSk6/c+tagKJduSIUI32bBQoHGpjJpDI/qEP1j4282a/bGmxCt4I81V0OxpI3yghCpxR/XA23oiU8XrMhVQnn4A7a7Ykaj0eI5aZTcHy9FlXwt/Q/8x3q9/j1CucKGuwlk8VtWiGOE16F1g2+w8MMH+lJP/PAax5AjW+B1ROEYW0rP62jpKDcThJldaenLQayB19FST1E1r5hL3ylPlBdAMpVTvVsiSJN6hk9Wn+V4+K645kVj9VlOgKxtKchvOYH+Zl273uZtPhhVfrsXqW7NWopU6gszvHD7OJaC34s86Qoz/EjUzqBS8CCKoUvU8JQvITmtZ8N7gD/BO6vnjl/1tIIPLMhxzo5pzweoW5ngYw+44UO++IJa2flch5daEOkuxrnkSX5e16354ie3yO6157r7L57N7+oqt5XAYpbI4fmDaaSu6Am4Dj2ywtkLvycV1yaEP85ErfB3Fw3dcMPgP2GU/BI4kh12eMLPUsfCt7a98K1ibIm/u+w/TvgpHmOHioiGWFNA37otGf2GDwHZaxGfPIj2nj2wxOQvRn/gZ0AAANvzLh1ZrMWjNpEtJp8buZjz//Qj/+16vX6ntfUsBRvq2YJTZwkqqkvsRRkOWMB+Vm7GhX6EtihqErCgf1dx6gyXNxPDb0QfZ4PWX0SVCaIWSFyOXmp+TUY26T1LVl5Tiydgk9bnvi9Lkrd89m9R2mCJ1uc0lfWFH7nebiL6ITNL2C/BiWnEj00a9hHYk+GU0hK2rrLp/+OXuXbk9RWXx1bWW1n2i+C/rWHP5bHssVqvHPGyp5rPWdoDf5EY73brh0Kut53UfMzBIvZcOOc6qsX5zbsfd7UKtLIJPrcpyfdUZLp4fv59J6M/VrHnRL9X8Bkbu+Bzol92/gjLBJ8X28E5wedF3/JseWKt4POuut3rxXyLBZ/vWX27JvhCz6pFYh5YLfh8p7pFuEutTO6YPatVe8GvLIUP2oc76wWff+XS37YWs7IW3mt5+PXiK/cje1fUzudFYF/3ShjuVq0UxmbJ59++N2nhKuzMcBjhTlqIAdqD8u1TdNm3R3sU20uXVVR3kllugvNWlK7hTurc+wzv5RidMh0Zs/ex3oTU1eVJvK7Po0jvwGq5Cig19KS6fz+/EpuvpWew2+3xymcM/smyp1fg8SoX2XFvCCnu4O3DK/B41QNlB7YZ+0Vft/SvIMdjjSC9Mv7dQ2VGxfqKvuTsz8Iv79Dd0OqMSmrBKcpmSctl9jb3jxYpa0Yltr6q/XFbGYv/+f7Xr1/3z+/VP/3Ll8P2Gv3pit4ZNFiHgtKsbPd3G+b743lDafOCu7A20pOzDZNUGn5ZLImsjfTBpTzxJE9RX5oeY8vT+/whWEn6/yqRYmO3ye9G0vT/VW1mb7fJb1jZe/0gZmJ1sAtKVlvn9bIlsyja2GzywE3hS/F9wk4P7dR7Wv3yPt/wX7mFgY3+3mMeKH9g47Pq/NjiPGfM3nkgDPyPuaAysHLXKuV2YBeFw4Rb3iWoxN5tek/or34tntfr9fpNNH17Dnb2ubwIOrcjQmtdHu2+2WjbybJKlO7krRJLRR+rEFpop+jVeGpi575VpGa4IrZR9OdZpL0az2HVkEaoaqeRWrhVT1WNFIVdTy30v2bKTJVYt1dPqLqsPLJtRkXlySivwVgLppJGTSUeA9hU3aVKzdSzakRnpnhwOK5uZaGvaJQlJgT5G3yYnl6Ze55ZQ5+q90+Fq5UOiDU/0TE7GrC2sPGtR9ASmBKJGzZQsR/0OBIAgA+M7C/aDgoEUsN8Jv18qvHVseVpxjdcXr80TKf6y0neL2Nm/QG9Tqk623B4wil2HXssjIHGLQZ8713mjjOFeR4e/Om75EtJlBV3BeU3+NJKsmDMmuhot/FHWjJDnp8hdE09dvEA6/aud/I/tMG7aJR7u5L4Xyc9avs7lZwr0pDecsT/1I/I3wXvINIhAcm55extbkrk+raVHuVntre/tYGv69VPQ7l922RaX4vzn/75lHz4pG9nJznc1Zp8TeUfrdjjeRSaL2Wxz/vT8PH73h09C1+F9BfvzR+skL7BEQ3pw5uy66Hd7/6BgB0ge+0kddr2uXsE7IJbZSVsvcuT9xjY2/d7Xro9VoHP9yh0X699i10Nva+CvU2+favgqVm3TPcWFK2mUnhU89guXcxHADP0iarHtg613V1dW/pE3WNbljk3FMAMfaL0uS28LXkB1WtvhL1FqFUt9gZ9xUf1D25UY0xT0LJknG+g5cnSBbb3DrpWfeD1dD1aCn+qD13G6aX6Hl7XXWNuf/Rp9jOtT8/WT4K+KGhfS8Xdsubyf7srqx8RtsJVKr4ppS9owHb9/Pz7/v7+/vl5/U6ht/XXmNIjWILGMqHXDi+YAo/g+hdP9MQBdq7oXRA8T/ROCJ4nejcEzzn1Q92AZ55yDBxhZ6Z5iSvwjENKnjPsDJcXuQOfOevuWJWt7xB7Re8jl+Azh7W+rPdOaX1Z7yO34A8m2lco8xziGHshvw9cg/921+SLwc41k88bvXMmnzf6wD34nbsmn4/0iXvwl0tJHWQ/p/eei/Anjxe6CL9z199dPJ6L/u7s8aiT8HNX8zs432Pjuwm/cdfZn9z92E344yRy7CZ85mgxn4t11FH4ubuR7ljaeK7Cr9xs4xzXl7th/hjox67Cf7sb5o9ZTuIqfOZwjgPgcI4D4Gjr9rgm7iZ4AEt3EzyApat9nGN+G7gLv3EZ/svd1B7gy93UHmDnNnzkLvy3u0UdwN5t+MRd+IPb8OkA7+TK3IanA/wA79wa4J2FhwF+gB/gB/gBfoAf4Af4AX6AH+AH+AF+gB/gB/gBfoAf4Af4AX6AH+AHeAzwTm9UOj2Z4fAc3s7lkfOlw6er9spfDGeRxU9G/wMbq9p/IiIjDAAAAABJRU5ErkJggg==;" parent="1" vertex="1">
          <mxGeometry x="254.9" y="774.5" width="50.2" height="51" as="geometry" />
        </mxCell>
        <mxCell id="vgPxkIQjYGgDSlGmg2nc-19" value="" style="shape=image;verticalLabelPosition=bottom;labelBackgroundColor=default;verticalAlign=top;aspect=fixed;imageAspect=0;image=data:image/png,iVBORw0KGgoAAAANSUhEUgAAAgAAAAHcBAMAAABSQg8AAAAAAXNSR0IArs4c6QAAAARnQU1BAACxjwv8YQUAAAAVUExURQAAAAAAAAAAAAAAAAAAAAAAAAAAABIBAKQAAAAGdFJOUwAkUoW52/gbjroAABIdSURBVHja7V3PW6M+EydAOfPqyrnalXPdas5ddTl3v7qctS3z//8J70FtKSQkQDKdEOfo00cyn8zvmSRBcDZiN6v75+fn1a808JDYqoQD7b3D4OIBGvTkEwRhi30AqO684f8niOnFDyEIOchoP/eA/0vooGrurfj7gsAtgM8IMA5KqlK/+QfYec4/wHaqAGjyD7D2nH+ASRrCW33+J2kGfkAf+j05/iPoR1PzhWFP/qfmCVjRFwBYTgqAvDf/sPfXAE4vGAiH8A+VzwYAAAD+emwAJpUWRjCUNtNQgHIwANOwAhyG0xQcQTyC/ynEAiMUYBrhYD6Kf/fT4ghGkuOVkaEh0JHe3QbgCkaT08FQOJ5/tz0hNwAA/HtydnYiBlP05KYtLMAcuTg+cgUmyb2eKQPD5NoATW4aAHj0zgU26T/vXKDD/aIIrJA72WFhBwBnkqPYEv/OlEhsCYArtfIZ2CMnzEBpEQAXlOAKbBJ9JWClVQDoN4zsCgD9MpllAaBfJrMtANRFwL4AEBcB+wJAXAQQBIC0I5gBBm38FgDK4WAMOEQ2IyiQANh6LgBkPSFHA4BmzzBC45/o6ESOBwBJHQgR+ScZCmAKAEUdYIBK9HQgwwWAnh8ocQEgFwvFuPzTmyQukAGg1iaLsPmHN499IEFHGAI++ewDyRUFWHkGACgZgdkZ+CcVCfBzAFD57AOJRQL5eQAgkw6w8/BPp0M0OxMAZEKh4kwAkLGCD2cCgI4VvDwTAHRiwTMhQCgWvDoLAN7HgpQy4vAsIjDxhPjCqdq4+XDwrzrHWE5ZBPYaF/CQapCZFoG1RppFqzCaGxcA5QF0Wt0Rs1WBpY53IdYiLW24+Cu1mExSB+Z6ueZk24N/NTWLVpOcmVcAlWARaxBy8wqgsIPEJiZNxUK/tW3LepJGYKufaBFrETPzBkAhAtSODpiIBPZpj1yb2qCMgUhA+MwGdwWAZHype97LuFAbF4yt7H+HcaF2dGJsYWyX9tQtagCMdAP/9c40JzUs1/nUVOlENjQqGO5+ZypzBIDBfnB/PazaQm1meqAf3N8NtS7UABjkB5+uhysXNQD61wVfNe8LTJwoCPQNBHrclhi5AUCPQGC/uu71r90AIDAs+EojQA6A0g730kiAHADqSGjoDaHxNAB4TM3aV3IAdIeCu7lp80IOgM7C8C/ziRa544NJ32LPSOFyCIDRN+MmTgAws9fEiV1Ih+XZ0Phb4CInAIjslW+ZCyUxKQAm3JUDRVFpOmjkGsTCXQDMrJPTb4zIADDTxs/pt8YkBQFDy0zod4clAMw9AiCw2MKNyQ9ISAAwNcgTkR+REQNgzFWF5IekxABsLAJA8Lr50l7CxhxIBgUAbG1KV+AAAGuLAFC8W7OwKKUl/UCwDcDOJrjvDgCwsQkAxUv1uEVHxR0IA5qLrGyCS/LVGW4xYecOeMHmIt9sArBzAIC1TQC2DgBgVEtz+slwC4DAJgBL+gA0YlW2uP/z799z93CM/Ec5/VSoCcCJlob3R+8obRR3/Sinnwk0AajHqpc6g/GLrh/lDtjAxiJrZuq26cRF06G3nbFeTj8Qbi5yI2dNhADvrvnkDtjAxiIPa/yhUy4XjUDUX1Th9ONAGQBMp2Ucqs5FcfpxYBOAecfetkQgU01WcPphUJPV9GRvX59Wq/s/UjNWT/efV6vVfdnYae6ACRADkEHtAXG2KMQVnePhka8Y6KI4kRNOezaiA4CmS1+UHQCcDBP+rP+qoB8FNBX5429R60Ac4wI1/uCv8cT2ZW2vC+JdMSkAmeBA8K3YCLaPjl0etb0knwhIAChEWfHlnxazD8JJ6tuDoJT0naAQADZyRKjYNa0k5QfXBADEI9O2qBIAQPbJvaTtBZKxHjuft8JJshogAuCmZv1vVqvVjWL32OK5hOr1eJqOLVsArAM3VODUpl183T/72nFQMnyoVURSWa5AVgNu5cE+e1DXQz4in1q4V9eeiHZTUJj11tYflp135XxS3DEMHNFuCQmz3qU816s0NOiU1di1IODUVnGtwYFcCwCyJrDsmOPjAAAvhQKADAA+f3O9KE5/dXQwr0/XJPmPugYZM4CX9EsOFjIVCOFlnh3U57LcyTzsLnVBA+o5a/jv7pjQpezht8SMHNRg3f3v9wQRKNTj7IWGFZcBQL4tEGpMiXKNOCaTlLw49dZgrHGmJ9coZyUSKSE/HpBpnOqaaUhvKAGpoD4hwzUkgOn48UIc7ZIfli8OHa9D3Vd8N+BeR5dSNQDUdKCs5Sk/ZXvEHuSJUC0jqpbqOJtcc+xEMcNCpqVMJ6nQczJzigB8iS7jsozPWJxJLCdgTbG8MBuwHwDY/7p5oGgFmWW9/FKBx6PHefcKgKBeSEkIRsPWAeC1SxdjsgBYbNpGNdcfEQwErAMQ/DyGEBQBCO237VnDJXgHQDPz3PoLQOI7ABnBOAAVgJxgJIgKQEFwSAAVAIpVQYYIQEgxHWaIRYqY8Cs7iE6A2okJxF3JSbZGEPWyJFkVLtEAYDS75AWaa4ooN0YwgpMZ5ccFMBQzo9wbfEeTNXL98QRtX4iemYmxYuGQ6HxAhBUJRUSnRRnWxiRUDw1hqWZOdVoSyzgXVOeFcyTRJHtmJMGJUEOyBycjnFn2mOyRAWb3TGdYfNxQT7MaUrNOZu6RbsNbft7Rz+meHM2OVyNcFtWd2X8++3qloKR7ePwwK1pZsIafo8Kvz4TPDDCb1/0V9C9SU9wiZMT7E79AI7a4SAcuUmvpQGoPAKoH5zJ7elqCC9cHhFgAkD06mlkDoAAnDk+zst+hFrZKgyAIwl/9AFiSBeBECTSWyWH7AdvfPgDQFYDTqW41AOxj+JVr8FQYfLbLsgw86JvqEADgtdTJIQv10XM6huB/um2yUD9s/ADg7ubmOnCAMt2MrdA+B1mSPjg/GIBY22WCUwAk2vEq77pPwV0AZtpVm49btR5104zUEQDiHu568axzHYBjAETGy6Mh5TIAxnIjqg3BToGdm1aqvSsAmB/mTegnAYKwxWD/LiN9j6TMvb8T/oeWyfgwa0H5Ll2pyu5NG5W1MwCYbuGG5CtB4rKIsQXP3EoFDoGAMZ3N3AoED37QmBXkjsVBXyuuzArU1iEAMqNKG4FjXvDgBjZG4Vw6BEBotIJfuFUNqFlBM2sOwTkbKL8Vb0QUsHUKAOWiebPBwaWXJHLXAuGa2Ep1IG60eBiXJnshOGgCDkZg02HYa6N0YSE3mZmLJuCw7F2njXj5vDh90cViAY4VA04iAVks9HVJ7OvqZvH5oIwErAjciwJq4avMDAouR5OoSw5uVYSbC5fZrvbzY+LLgkNwUwOOOiBbeRMBiRfMHNWA42hfJXNfPzX2/6BJ7mnAUQek8z9hbe7lsduZOKgBRztXySOYz/tXq6dUYUodqoa1HXjn7rGbzqmXzIXBMFU+MCKIZeCuCayPTQ7O4zJwMwxurn+oBjPyL0vpMrAdB2CVBq6LwHIUfu+u8n9kYZAS5+BmJUAoAgNOE4buC0BNBAao8RQEIAiuBtvBSQhA/QhFX1fIJyEAtXCwZzQbTUMA6hPhy0ECUKWuAxANcoXRCPdBjfgQXorJCED9XIg+M7HrWYDYoWu7woPv2E+B/5or1LWDV/SfVx0WDWk+EhfCpASg1+GoU7O5nAoAUa9TrzE4XQns3lMNt9bfZDjlCnf6YE1IAOoH61Xh0A9wuheglmu40zQX22BSFOsdK689UT2fFgC1S3Y6zr+zAiaUBcnsoByBGv9TyIJk8aDUDtT4n5ILFCiBuB1ef6J+O0H+T2/ZeWmJ+KL+Xms6RQBqLh4AqtOrY0Luwk1JxioDnxAc9vnigfjD2qbCoebzyfun1c1i9VxqzUtNwgyUoEHzYLoUafC/DKZMl0r+fweB1wj8FwReIzB9/rsR8IH/0xHRU7oL/CD2IGS/ug68oUtBQPCSBh4R+9mA4PU68IzY4s9R+J+myL7GlZI3q9Xz0+pXB/eRwxUgI8MtmbO1wdBMYyN3NjXiZo65FK42iG4NDbi5Gh3+MJTXho7mh5emBnwiNyPkS2MzjomTOcIPc/3t3MUqyeFEpAE3wFUHCwlGuNzkOwCl6mgp7Vxf6gbY6k89DX6S3a9ff7VjP3dK/DvdQLsmJOHutIj86Nb2y92AqDYubpnPtGCik+K3rgQQ/07YHRH+Nmv+6pGwJbgUVPoCLa7kBiNv6wrVkOC0u9vlBpikILoTpkKC31HUg/BBf1dnspJwKkyFBPRCDYLwXsbTW1ds06S1OBUS0RMlCC4e5H2ObaC7q0Kf0dFKfbl2gH2hXkc9fpx0/W8SECwKRauzhwkQ/Djv/uf7X+flni3KAbMOHbuaapsLwZQNMdmXu4GsB1o68yTn0QSmlH2pG8j00WJ639iji8HFPejSdgwAkfZnMBtL2psvOfbUQwVmfT6EJAY9Nl9i2RN9ALJ+n7IvBv02X2LYYn2w8r4fsysG4X0J/WmtHd621aU/3FBZC5L1vJ6OG9CPBId90YZfHCL7UjfAdbEKh37TtCa0hjlglBtIzHvBtiYYrByxexhF+tlQ2icVUvuElAT7omyg1DQB+cgvG4CgXeY04AZkjG16p0JKGqsIl+V4/gVuINTMBQ18vRpTQmUPYIK2mkWxd93iaU+nmJ51+8WXIERatiIy8/2hQnALpkiv2r3tUzrqR0NGbBg3xr9oyivW+VVmbAX9G8usMMe/8AhcqVE9zc0toe8pLKP8CzukM40OislF9ESAm+Rf2Bto9kf3ffoHg7SgD/+50U+L78LJlGoSgvVtkNAPMEzqDmmlOUQwhrTHrEx/WDIoU6oENDG9jPk5DKB0UIYptSQ3vQxNQ2j8u2I3ECqDJW58HdvzKIBYwGOleJaAo4vWFUBs4hLV0piFhWgoQQY2KFV+6A1FFNU304RW+BeJHleZiRnWVti2gBI3UKrMhB1Z3J5FAAT7y5TRoqW9mJ9DAAT7GyqLBgXgi4AtARC4gVi5M7bWMj+DAAhsT6Kyk9Y2o0MEmDX+224gV9WOI7zNsGx3NUv+77ZToc7A3FrsKf2osiRmTx2l53hie/y32GPKZXF7i1mjm8A2e6GyeG5RHLfoJrBteZRlcYa4GKuxt8QNJCrBjGwuZoNQCVZ4uVz1C6vbscPXgKbecZWjyABbB+xqQBP0UvWLHLB1wO4XG0aeKR1FgSmPVnMPoZEPlXKJuR32rW7LDcQqiELM1SAYnaaRT1QBmu39eEd2gk21y1UQJZZXs0N2gs1PKmeEbJvkliO0bgJO7Y7y7DAHZCOQ2AdgrpK3CicVEtdfuH0A1kp5S8+lkRiIn2Aeq2TEvkZWSBVIsRtIVDIyQ9VIy8WgL9orbfwbXlTSzL4RbGDdDXCVjOSoGonzwbrQKcflC1SNxLGBNaFjSsOEsJoKNw48ETrliREMm3wSC0YoAGyVJneOuZ4lXjWo6QYSlZKg2OQNZi586gZylZKg2OR33EC4LuFcpSQo69lhO4GjhCvXhLKeCrEeeCp0TLUmhquRSF7nKOGRyjVFuBqJ9sEvNxCr1oTjlGp+MEEC4HODE5WVQHJKb9he8GuDc9WaclSThPfBrw3mKitRoJokvA9+Ya70zbgmCe+Dn/wxlW/GckqAmwse+ItUZhLLKeEmn8dPxirXhOaU5shhgA5/a0ybvERNhg8paK7yzRxzNahx0IcbKFSuqcRazRt2GPDhBlQ/wLPJW9xqwKcbYKofRKjbgRoHAUCq4i9FNEl73HLIp+GdqX6QYcojbiAIABsVf2tMk4QeBwG8q/h7w9TIOXYcBLBT8bcNUBUSqzNcUzsVQpgCucYOBAHgf6ofYArkBjsQBICV6gcZ4mLecAtiHzqg+gFmVPKOHQlToy12JEyNduiRMDHaoweC1Ai3IkiQUuxImBrNsSNharT8BgA7EiZGG/RImBi9oUfCxOjd70j4IxbmPgOw8zsS/oiFwWv6BsDvSBhg7ncgCLDErQnTo7XfgSDAm9+BoEanavqhIPcbgJ3fgSDA3vM4COAbgNJv/qtvG+C9F/A+DvA+Epz5DcDmOx1mfgOQBn4HAtV3X+C7N/g9H/A9I+RxKPSOPy1OUAM89gPbIPBbBOZB4LUIbKWvP3oSBaYB+h0axPKgwGsEGq8xh56FQ/t5+5l5jwxBJX6U/mb17AWtbmpM/x8o6RogUjhwxAAAAABJRU5ErkJggg==;" parent="1" vertex="1">
          <mxGeometry x="318.11" y="665" width="53.78" height="50" as="geometry" />
        </mxCell>
        <mxCell id="vgPxkIQjYGgDSlGmg2nc-20" value="" style="shape=image;verticalLabelPosition=bottom;labelBackgroundColor=default;verticalAlign=top;imageAspect=0;image=data:image/png,iVBORw0KGgoAAAANSUhEUgAAAgAAAAEKCAMAAABT1R0zAAAAsVBMVEUAAAAAAAAAAAAAAAAAAAAAAAAAAAAAAAAAAAAAAAAAAAAAAAAAAAAAAAAAAAAAAAAAAAAAAAAAAAAAAAAAAAAAAAAAAAAAAAAAAAAAAAAAAAAAAAAAAAAAAAAAAAAAAAAAAAAAAAAAAAAAAAAAAAAAAAAAAAAAAAAAAAAAAAAAAAAAAAAAAAAAAAAAAAAAAAAAAAAAAAAAAAAAAAAAAAAAAAAAAAAAAAAAAAAAAAAAAAAk2wLSAAAAOnRSTlMAeAv68hX2AgfuBGBm1KCPIw+IcOfP64JMKN+mNJVI49urbDlWLR/FsBlRm7RAycG9dDEdWz18uEXYtEdEPwAAFrxJREFUeNrs3Qd24jAQBuDB3RTTTeg9lE1IQkn573+wbQnZXZINlm1JwHwX4PEsWxppZkTsQLk0vtrmR9WH6iifW+6mNrHLUL7NF58KFv5ltu6/Za5KxM6Xux61W/g//75yVSZ2fhb5oY8jrRq3WWJnZFGdIZow6PEYOBPe5Akiwu6a2MlbVEIIq+c8YqesGZiIJXzkJeHpug5MxGZVeAicpnLFRCL8DE8EJ2hbQ2IGS2KnZfOERM03xE7I1kfCrByxU2EESMGcD4xORKmOVLQ6xE7ArY+UODwNnICcifRUiGkug1QFLjGdNZCyIR8S6uzw+fMIuCRVSBAQ09QWn+GV4CXYOZCDo0EtbUJI4vCOkIa8FaQZcIqAfir4P14InrdbSHVFTCveAFK1DGI6aeBLHAuesWsHkjnXxPTRxhF4HXi2ppDP5EpifQyhwDdimihBBYdzBHVRhBIPxLTg+VDihZgWJlBkTEwHcyhSJKYBw4IifWIa6EEZbiGigyKUyRBTrw5l7okpZ5hQxuHOEertoBAnB6o3gkJ5Yqp1ERkfCJ2TJyg0I6baCxTyianmQyU+ElbOQXS8F3g+XCjFDQRVMxAZx4HnxMbXHD90kI5HYmot8B/mrLjt2C794NqdZaZdMJGsBjG1rvEZK1ga9C+j15iZ/AU4I6VP73ow6BP2dmhxYui5aOIjqx79lzEZOkjCiJhaUxzqT+hr5dw9RwFnYIoDRYOOU2r0uV3QqVvjH61bOl72am4iji0xlQ4HwLxM0SweWxA3IabWOn5Y5vbmJreKOVVr/MGZ0J6cz0CPmFpTvPN3JMx9FgoMb4mpNcVeuKZY7NGKywNPTjPRh9FsDDgt+LQ0k34bx8UWjjclplYphV25daOOIzWJqbVJp1p7kR+GOAI3i1PNxt4NJauZDwr4woKYWmXstSh5xm5UfGqZnBWsLQPvDEqJu1j3tvnqY6PReHzIL3dtvOGWwaq5KnK063jD5cHKOfKP5mzsEVPNl5+hOcEbh5hqfewNSY4u3ljEVBtgr0BixH8yJKZaHXtmlmTYcKM4ndxJ35jNYa9FTLUb6aWaAbcL1klbep1OH3t1Yn+yx5Nqoxi0h8N20G1UJ+MFpe4b3rVJgiberYi9mua6Mx8H/Nm3/NSlFFUg+YUccY+gqGen/jx/TWnJ4J3jUvqG3Cr0L4uHGY5Qz2woFXnJx/Ouj3dPdOHc3o2JY90vs5S46Y3kLO0O/jCni+blXxBJa2RQopo3+EuVUveAP8wuOR8gm+8jstrIS/JhOPI7dz7hT2ZwsUlhzwUIGSwpIdlAQedOz8LfnMusELfbEDZfUCK+qejcueM+QT8tQ8TgbykBeSU5eg1uEkDkdRFTYFBcC0tJrd4dDlkXlhu8mCG2+nUqbeLNHKXLMPn+uGYLCaitE7ssrtbdPt+OO9OS7VHaeviIf0m5oesQibDGFMcWb7oGyTPtzkLAHLSLxWBmJjbz2M/V7vCu0Kr5lvOLFbbq90Fjol+QufYBHUbAPgQISDbXo9/su0Q2oMbFAj7VKupVgFyqITH+lMTVdajO68RfBBijF3xhtXRJF+UBEtS3SZiF3wakkBd3B9J4CHGE+jPpwb1Bou6yJMjV4kA2i1ddEjJp4UhtPQ4dMkhYJfa7d0MKbWL9j02U16mmQzuqtYmk7UiQqUNSVi9Oy+CthUiKWVLMXSFxLx6JqelQmlERDwONNqK6s0mUxnd0ZkjMTIcoYP9GlCmiUgHRDZqkUjlECiybhHQ1OIm5hmgoMg4hIuyQQo9IRZGE5DXIynoQDQJ6FsT4Y1LGCPGbHp+AEl45NqlSEKxIujKlbZ/qvgKIsQoYKL+0o4NXjkFRPDsQFzZJkTpS0nLjZWYMXFIjEOtL0HEQR39BSqyRmlsSMVXds992hGaATQ3xzDxSoYLUdGPGYC8uqVARygbwVogroGi0v6W9T0K2anPymqZQHNMFcIoXFW2QoimJ8Gp4VSuTfPdCbSkmSIDVJOlySNGIhFRV5uRthQpE7RAfGRYRySpLsnWRooCEGDW8MsckWbkvtIZt4yPz7FogdJZrhhQVYlcGFDySq4g3w9gppXde5CDbKZFkPlJkuiQkW1BVnTM1RWoCvBd8oFAW2Ga7IblspKpEYp7xxmySTDOheuQHfCAs0Q+Gr/d9dWscUr4V9NeceueSPDm8KWTpaGUfh8zdfmMzkoJLMj0jVRMSZIdSr3E+/NVd3OPU0X50aL0Z8J29+1xPHIfCAHzibtMMmN5bKAktpPHd/4Xtzu6GFGOQZMnYz+b9M78mM0mMJR2d8gyl8hI+i+6SkvIQOr8IvwBGofWB1dAjFlkIAwBVGfGYESVkgg+uGXMH0C5/2dGm+RWQh1J3JKxlJb0vsmtCby5vcGXzM1FxeE59MoD4AxBeWdsaJWGMDxub2E2vZkOVUjy3OI/v0rMEkFNINiJsuviP3uVbq0IG2o+LwvTGAnIIScFlwM+mLfoTqVcUu8b2Ebai7+4DcDlQYqaIdvP7zYfQO1mhNcTuIBsI2YWfZQs8XikxK4SkIg7wDzNIrk+gVxB8aodMt+BTHRyGlJg+lOrLilIYB1Jrjw9boQTSa63NcymdXb5GWBpCwf95S2pjdDDwH30mlj927fbiWQe7EiVlAqW6FI9vJZQhOhL92RciYoBhTSONa8AEYTfPCfviDomkh/VDJzhGPsdD3x0AqZte34VSLYl7sx4p4wxFXzRjnqa25has9hTlf/YA0AQnE1LlVXhOwILr5Gs39LTFgl7wXdqWAKKe+vQw3xLNyLJd/GBodMmkACaGR5dk5hjYlZql+UpqPAonoHW582CdhpWqg+AUP6UpDvCPFW/GpPg/MNSIT1Ugo8tfKA2ix/4OkJ5QcGid3ZEC2kD83rmDHwyHZd3dpKdMrIKzbt4sLBykOT1Q6n4EC+FSds4vYTdwTY2SsYBSbyRDlStTRzwR/J44mcI5cE0X/6gjguVRIgZQynAkdzHrkGT2PEb2ylr83Ns64o96viZ6gs5CVrisbK6uzv4FxYuQvPg7qDoxKz/ij6G5129YH/CAsBSuAVTCh0GZZDoYcVpbFuN8u14Pf+y87oArmUr6+heWpvvAf2ltRQPkFrG23Tv8UBG4gi7RsnarC8EdlCt4sgNWfSIFYZC6Sfw2+OGZ2J2uiFdk1hDSoUsyEQaUWvDcUbEILOvxDpjDuPG7vgXANc/1F9pStEyUhn9wyySDGSiIkSxi/riD2MPt1gaAEdELX3VAJm4CJb8CniE9NyQXN8hs4DuDuE0MAGuiEleDpQw0B/l0lP5xdQ8kg2/EfUh1CYk8ExfYEWlB6GFSzQ6QjCfpC/bWo/i8DT7UPBJhS5lwPDEAP1yio9N5GQoCfdjLv7msSL0DsGYkRJMT9XgxkD9TYkgXZKEqDPKrezsyz4L9+LuUsqTv9F0vnRnbY1OEzEQBPxQUdPCq+xSP7+LD3Jb1AHRIzLRCRKae8BvgDQlxSZb1jw5M4rQCPhg+CSpLu8Qvh38hOl2Q7i7hULedqeDk0SZx9kJG0oomN3qXT/gUUEBSSBpvCylp4j0pvzRP7m6ndSUOkNkHwCJ5loGMGto9QmmAQnS5ydx1hp1T1gLBf7RJoncdJ/n471pjJrPL5lbib2RHqo2QkC3JVI3dhCwvrX69Lfe8U2TcT2QjHxSqaroeYmZN5OQlrW7wXUCxlNhSCzJSEgBVnR6dLT41Yo1JXthyKkpOHIqjwfpTy8CoCJXpjWYBn4oO8XCK+DTXZMfS7uUNcHynCJk7BrRJtkMbnzb3xO6wwaejKX3k5lreG+BA52VvE1Ai6Vp1fHKnxGrq4lP7nuJ6lrvalZjCp5m7DuySfLMAX3RMYrEcQe7vn7pyH/Yi09Epa8HgAqnQGuALd+zRNc7e4Pn9i98Hi3vjOgSkv0uk0t2s38ZXw2ePLtHGA3xVOCjZRgXSvtqKEuAEUK6ukRKhZPr23qQofqWOb7amoiv1JYmzLY700kwUh6sdg6Ut8J3+ll9S2NPdBj8UHVXv0BWJOyRfHOy0oVigkTL2q46fjsXqu+/QP2yzO20s6vjJGpMsS5m7wD7PFiAbA0NUx7PWA5xlDNrDgYvzjl2SZ4PvNiRuj08vlJAtlKrZpJTZAa+SpnIR1ctSbucCm67ISJewd1Kt2QaP2oSkMnV5XZECnPQoMW1wSlvXa+3VAKtB3ibJitI2AbObNIumO5x3+3kRzMyKARaDqkbStXRZz/z+NlODTAPKDBxKRnk/xDXbZ49UKMm6+5xzfnAycCWUp+SsH+qIdmy0SJHyUE4dlI8TV6MEmS6+yNIR4AfvpbG1EDYYjX1S6Gkz3709jjrFXqnSaNw1ScysetKkRO2hyIQS58yeG8VdbeAahhsc54tS9X1Jvxh6pSvwQL+yoQ8VBmX6lREdfJGmPtG/Lkj5PrBHv7IjB9mGGv3KkB3k0if0K0t8A1I16Fe2jCHT3KNf2WJvIY/h06+skbkIPNOv7BmDTXrG3fxK50mg/RsCzCZJi4D+Qr/Cl1Trfv/9vf/eTfOnY5yeQWGZ1b3TKKT8YH0pXmhR2HTq0O1JOQlsPFLFrryQAv0GSWJWC/VWVFPik/qBQrzHemlGN9fSEZc+I1XKC/RIgR46GsXnNRc6rAmF5RmuSbQ5sMnffH2opHgB6B4VpcsPgFqLYmpVgsjKsBFL/3yzDcAovtBNae203gF5r7qiOoMuABh5ikHLbS8VQnaYWqa0XPxRqJp0Q6uUFoJMasqyjBr4x+M9CZqV3MsBkDy+61zugGgVJ8QvHaVij6TEoYP/1D2SrYZ/WXce8XOmW3yYO3RGeBjI+mqZWS2vEbc0lIp1SQGzYrDnGdmHSXM6XTX76/V7s/n3n90lczb2cUWczNcAJ8GBIjR1tkBpByduyafbmEPcnORbVgzmMLM9fTQQUh+tbMbqzvmaeDiNNk70NVtv0kePpYc9oC9eiEsKkoPGJNuko+Mb16FIsxoiFJ5YA+DzJnF5eTBYOmG8svUmbBn4ajO1KXH36SkEMMcbnpnKLwYiWWvW6l7Uchrx0J63ALCzmUaeGSbXx++Y8yhhWkq2AM5qZAEcE1UPdVxQN9k7ZNQrPnFpldz6krEhm8+ZoD0YO5QoJw1vAK1ZNHCeoYk1P+9x/a0d72ugxdpKZsw6FulkmLMpSQaEzUiGZX5hIdoqajd/maXRGY6BCEax6ZE0OeaT8jvCCk1KUA3CTIpL65cKuGwk2PBsxV0UVX/oOyTHKPQg8s1zfWxRYh4gqk6x2N27nY6rLE3sv90QmZ5rdKZSLopc9khGeYAz9IpGCZneIg5oP1UXLthM6ZyiUM/qAa6yFjlTZnitJBiOb/cpGZqRdD+I2Xjhgt1C7CLzVXx+ur7d+9JuWYeMU7LDHjRKRAliLJP4+flOAD5Wmc5oiuwBGmB2rExsOfsqn67wLZw37FISlkZC5aDlVW8oLevccQW2DgXwCB6ajoTZLFXxtAwrR0nYQ4SxJB6t6k6Xuteo8Oeq++BldFYacctztpTXgtvW3Nk71TuAbuMIcbrJX+Out2T1yjaKfY/4LELvIvHB7iVKgDkEtw6xeqq0EU+Ofxx+SWbyQ733RMzC0aYmXeMNb1x3e98Gp61GTJZ3BcT2xh3B2DoRF0GiauMysXrn3yw9MxyDlTLn4PKmEYv3kQ4JdDNqJHiEWll+WwyjNxM8VrXpIm9SLRYQzbinBDgP4NBz6DonP1TcgdLZ4azhUs3s3Lc1sShwDFI8jB8NXLGjRPQHYBSs6LryXQBpdlH/SA1nBD7D0ixm3hTJsNjTecv9BixWxE59G26rZNJVzr4OifQlx/bVnansjrd9oSvGbM+v3XzUweboUTLMu+D6SsiwItm5NuQaU4T7AX6wXphuvcQtfM4Bw9A1+kmrDsWPQWFq8nLCNmOTrnuaQ7Y5+/65QufZASSxGg5Fc6zr73Dtrn6rWYyeT1doq14BZ7iPbD2YtYoO+Q7M1+lbOm8CeYZritS/2kXXG9dv1oVzXXgjBuX1uPdWC3T8YQw3nca0RWy6BahQpQhDME7xqUCmkkMRJu6Vm8nm8WYVOK0R58RzTytrHvGo6lBiQ+e1mAMnBUhV8ymCX8N3xpQ++Y+Cb8D4Dg+66tCiNoIqPnNmWJHO8SGZ26QIWgdfHWd04t1Zt5rHed/T8Y+2TaocalDmjrnRUZDU0NQ903twUaaT2QaCahTPrKirH+02G0CM+E9As1jLFbaQr2RThHVwbvmvWhDmkzhvtQvd4ynQrUOlFnM+3SvnRZC4ok0RDhv84fbpxHy8zUA2824QSuVS4cmFUq/MwZ05w0WQ8ifAefixU3wZ3KIS337vWMlM92vVoVaBzhiwXh4uoEaPIuWsjkYnex2xuDbxu2+0BTYU5fszynTZsg3VZhQyY00i1Awo8kqR7iMOBgmVYWm5nUBRpxcVoz7m6QJnA+UaFLJnzVZqQplpQsejHGcPs44l8t5y3hCpY1OkItQ7Mm/t63Z4r6CMMaNrukHCM3kmvTrCWCZVVsSCETkk4Sm0WOmMZct2AHUKGl22MiDBjhi1GkPh/u5lCxe4nnDXYTVNaaesq8UEKj3QRXkdMgSMTTZqcZ6mvlBDCHuORAyZF56N6nnJHGm/DUhSZlj4R1a8uFJO6BsdQxq+BzBgLVwvQKm2RlHsnqIVMKxVGYBZQ+IDsHSRkBJ988S6ZfahWIUieEVIs6ILyn+1d3ddicNAGIAHim0tlPLRKhQFS2GBBXQRVHz//w/bvVxI0ClOUi54Lj0e9BzHdjKTTBozFDHy5AKgCVtSOvDOnSqxgWFOi7T8OeSM6aSHpouChmIBMHUgj5Xdz7j56gtMy0jHX9l4zAS7ZxSXiQXAHPZE7P7OG+8bzb6gl5DUJJ3qOD3zsI1QALzCothjHqdCx3KVYs45vSh/QM7vxjhTVygABrBpzc09EtvPqD6pqrcQlJBil+JsoUwAbB3wiDffvDt8ZaFsGjFrSRoRBI2U7GuGn8hFAqADq+KAW91rmGsE8QfZTCHIpQN+x5EP2UnR6yGCGHbtuRW2OTsVM7lKSyCoehBbIX6oVi2c0W0lbhyRCttnfKnmK40gsxLjW1G3B7tNzDSYw4IdhAx2qAv8G26+mMOS6cmZweKVcC+CgBdS5U6hxnfbhW1D7tousp2l3Avcx8FLwYIBRLRItR/hhDQXmDIqVw4ZcJc5n7DkkzQ2kNMQ/vujo99JFjWbhyNLwn9fiCZ+6UWA/68QCW7xnV/K2THDWqTqG3jEPELIKOCdcc/oBO8W9v3mXnY1NtgI4tfWUohZitcXe3RKzBpylKMEA+6bfSX7Emb9QNWj9Of3XYiZ0wkL3l6UCkpQqzIX2K6vLBbMqgVEJhfKiXhEOzek1+PdfPiBMky4y6uhoUYQv7gqG4GxfN69Ib13HOheUAoAZNz3YGS5WY2u2bkETkDkPUFSyJtg3yStKUrhVpkFqCelEWRYZjgJWMg3NnLSSllnyeoox4478q9luVSdksYOYh6IVpC1JGK8txyfdCKUY05r7iN5CavapNpCTE/gica6lW/I25H8B+Vw2x2wfHgxrHojjZFgKbAHaXXW8q5OOjFKUg/B4u5hV4M0Mki5p3tIm7F+5Yg02ihLAqYQdkVmW8JLWkFcn1RPrOGLD7ji1AJzwY8PIa7D+deueXQRrcBLF3Jmx54voTuIiwM6tuY1uja4OlIjowPKYtpU5C3o2GtF0SLVunJ1zCeNYUXI5i9mWr5QYIC9dgAAAABJRU5ErkJggg==;" parent="1" vertex="1">
          <mxGeometry x="560" y="665" width="100" height="50" as="geometry" />
        </mxCell>
        <mxCell id="vgPxkIQjYGgDSlGmg2nc-21" value="Customer" style="text;html=1;strokeColor=none;fillColor=none;align=center;verticalAlign=middle;whiteSpace=wrap;rounded=0;fontStyle=1;fontSize=14;fontColor=#808080;" parent="1" vertex="1">
          <mxGeometry x="569.75" y="635" width="80.5" height="30" as="geometry" />
        </mxCell>
        <mxCell id="vgPxkIQjYGgDSlGmg2nc-23" value="" style="shape=image;verticalLabelPosition=bottom;labelBackgroundColor=default;verticalAlign=top;aspect=fixed;imageAspect=0;image=data:image/jpeg,/9j/4AAQSkZJRgABAQAAAQABAAD/2wBDAAMCAgMCAgMDAwMEAwMEBQgFBQQEBQoHBwYIDAoMDAsKCwsNDhIQDQ4RDgsLEBYQERMUFRUVDA8XGBYUGBIUFRT/2wBDAQMEBAUEBQkFBQkUDQsNFBQUFBQUFBQUFBQUFBQUFBQUFBQUFBQUFBQUFBQUFBQUFBQUFBQUFBQUFBQUFBQUFBT/wgARCADIAMgDASIAAhEBAxEB/8QAHQABAAICAwEBAAAAAAAAAAAAAAcIBgkDBAUCAf/EABoBAQADAQEBAAAAAAAAAAAAAAADBAUCBgH/2gAMAwEAAhADEAAAAbUgAAAAAAAAAAAAAAAAAAAAAAAAAAAAAAAAGJdc5arZgd6rc9gmd0rQcdAAAAAAAAOry0ztV8ng/JLe7OdWLPrMM27w8xnXAAAAAAIS6tcfz0eNY9AT59n2ZqUXlzrkA117816lGcOp1KgZd20Uia9vWu19gbD8ww9MOegAAAANfVi66Tf6XFssxPJvObHN4/seGa/Lp0suj6DJk4ed2PBpfe6DdGlDt1Nc+xebj9GRoAAAAAa+vF2DfO5l6+/TvNCM0fuTvriuTUsVUl3Las36mxxW2U8LUz+uHq1l0Knd2D1tslDIGZeAAAAPLoddrbBUYydVmDjuj2T+J6vpsS4ECz089r6+/E2PeXq0KCz1ZHkgl+PszLwAAAACkN3sZuVqfXCpth+znbG4YqjxwyLa4TZyGT9gOfKQ1prUZpEOHc9ckjVpurNF2Bl3wAAAAAPjApAd8xTmuQuuQikUhu9SHUoSpW63caXK9gcqpvcbKv8A0KlgAAAAAAAABWazKeKPc67CPqpsyScswhTsgAAAAAAAAAAAAAAAAAAAAAAAAAAAAf/EACoQAAEEAgECBgEFAQAAAAAAAAUCAwQGAQcAEDARFRc1NkAWEiAhImBw/9oACAEBAAEFAv8Ahhm1DAWCO3FeMjZB1/lKXNkAPpyZLUNi07LkTlf2ecGa+NE8R9Qu54y0lhn6TriWW7rcHLHLr1dl2OZXqePrrffl7UgxJXq5A56uQOerkDnq5A4OmeYQdp2LLDIwc8WnggkcAOLWoWEU1swE4uEQjEme6a95hB5xJH4qZ5+KmeQ6gWelpThtFiJZLm9SiMZ5cJ86CHdrplSnWlsrEGZYOXV7GzZRvcNe86i9q6mXsxxHNcs4ZqXQsDhHI9prjtaJ6/MqE2LuGvedZnIAoc3bAzuWnm30cOtZfC81vIw9Uuu2oqVhWXMsvY/nHbNe89IBOUMdqGx8EXM48cHRqhBjVZ5MWV120XQpIeFkiV7igw9avIx3H6wJkptms0sMc13YlGw+zKsogwheW1V3aeG2k30CpB3akVlqVKdnSNXVlWF/QvQ1AuzarlZZsfLVrRE5wiFnCV8hj5JBysavXlaEJaR2ira3hfnJDmuyfmVa67Dmpm2rVsfLtn6ZxhWMioSlIbS0nu3cCoEdqdoerE8RYx5xpa0tptuxIo5hSsrVrEAoaK5Y9kSAhqon12QSpWEJJ7ZyzOp9hn2RnuWCvxrHAP1WfXXsZ8OLfccwhCnFU7XDrruMeGOX75dqz4xsm4ePKbVXLMQjsNxWO6tCXEzaGDnKRrIElQ2vjhH7L98uqj05jXfj+tdXjwY4P6t++Xas+MbGqHlz9Et+a/MSrC0/UtdCLF7BRgskCEkR25bBPVpJE6kwTAmJ/q//xAApEQACAgECBQMEAwAAAAAAAAABAgADBBESEyAhIjEQMEEUJDJRM0BQ/9oACAEDAQE/Af8ABJC9TDlViKdw19q20VCKlmQdxi4tY8+x9RbroJx75jvY+u+H7i6W2mrtQRctte4QEMNRz0HS3rAQfEbxMT8/TJrDJu+ZhtqpHOcMn5jYzp1Ex7y3Y0bXHt1i3Iw8zIvUrsWYqbV1PzzW3cL4ituUN6L/AD9P3HRbBo0OH+jExVXq3Xnvq4qyu56O0iPllhoomNSQd7TJdkXVZxdtQdpQbLO5j09gqG8iCtF8D0zPwEsrJqVhKbBYvT27KxYNDFUKNsShUbcv9/8A/8QALxEAAgEDAgMGBAcAAAAAAAAAAQIDAAQREiEFE0EQICIjMDEyM1FxFEBQUmHB8P/aAAgBAgEBPwH9BVSxwtLYzN77U66GK+lbwGdsdKeWGzGlRvTX8ze23oCzg05Nfhbb/GruOKPAjoYtLfPX+6ggE/jkan4epHlmmUodJ790CbfA/iirL7il+IVxD5Q+/ZZTMkgToa4igDBvr3xxFQMaaS9ikOlhiry1EfmJSlbuDBp7aVDjTVnasG5j1fyB5NI6d63tjcZwadOWxU9jb2vi+lRyvEcpS8R/ctS37uMLt37WfkPk+1S20dz41NR8PVTlzmr25DDlJVlGsrkOKMGucxpV0sMQ5aDf0Fdk+E00sj7M3Zw75h+1Qyqs7xnqauYWiffr6cMzQnUtM5dtZqS6eVdDfn//xABHEAACAQIBBQgOBwcFAAAAAAABAgMABBEFEiExQRATIkJRUmFxFCAjMDI0QHJzgaGywdEVU2KRk6KxJDM1g5Lh8ENgY3B0/9oACAEBAAY/Av8Aowi6uVEn1ScJ/uoixsQBse4PwHzrRcrCOSOMfGobi/maaefunC2Ls/zp8keaeRYokGLM2oU9vksm2t9Rm47/ACra7sesmg3Y/Y0Z41wc32a6G/5RReURx4/GkiQZqIAoHR5G0jsERRiWOwUYoiUyfGeAnP8AtGt4tlwUeHKfBQUDFHvtztuJPC9XJ5BNA1ncExuUJGGyvErn8teJXP5a8Sufy14lc/lqC53tohKgcI2sY1HkqFsGlGfNhzdgqG0gGMsrYCo7S3GgeE+1zy1m3d2qSfVrwm+4VmmeSP7TRHCt9tZ0nj5yHHv1/wCnf3jTNa2k1wqnAmNCcK/hd3+Ea/hd3+EagjkydcxozgMzRHADGgBoUCry6JxDyHN83Z7Ku8pONI7jH+p+FP8AR1vLPdyHMXekLZnTTSSZOvSTpLNC2mikiMjDisMDQuLSUxvtGxug0LiPgSrwZY+ae+3/AKd/eNX3ph+naX0o1pA7ezctDzy7H+o7pivIFkGxuMvUaa3Y58TcKKTnLUCk9xue4uOvV7e+3/p3941dpd3cduzS4gOdeisFynbY9MgFZ8brIvOU4jcv4xraBx+XctQNcZdD/Vj8e0tZ+PHPm+og/IUjr4SsCO+3/p3947u+WtxJA/KhpLPKebFcNoScaFfr5KwOqru0b/TcgdWz2VNk2Zs1Z+HFjz+T/OTtLXJqHFwd+k6Ng+NWlsox32RV76WaxtmY6STEteIWv4K0VkybbHqiANPd5JzuDpa2OnR9nc3qZs65tuAxPGXYaGU7VM6aEYSqOMvL6qDKSrDSCNlLBlaNmI0dkRjX1is76RQdatj+lNHkxDcTfWyDBB86knncySyHFmO2jle4XAYZsAO3lbyG7jjGbG5Eijr/AL00XFmhYYdWnce6yWVhmOloDoVurkrNu7WSDpZdH37mZbQSTvyRrjSXGV8FUaRbKdfnGlRAFVRgANne7xIyRI0LhSNeOFePXP4rVFnyGSeFmRyxxOvEew9pdZhxWLCLHqGn21njVFCzH9Pju4EYisTZwE8u9is1FCjkA79MoXC3mO+RHo5PVW+qN8t5NEsXL/eg9pco52xnQ49VFmYKo2mnt8nSLc3h0b4ulY/nRZjix0kmnvJlzZrrAqDsTZuXNklnFIsRAzmY6dANdlyRLC2+FM1TRZjgo0kmpUs7RJrdTgsjsRndNPcz2kdta6kYE4ufl3021wMNqSDWhoi4izoeLOngncwaRmHSaCqCzHUBSXmVk3uIaVtjrbzt3KPnL7or+e3wp8kWb/8Aoce786wbFLOLTLJ8B00kMSCOJBmqo2DvxVlDKdYNFmsVjblhJT9KxMMr9BlNfslnFC3OA4X39plHzl90Vdvk5c66Ej4coGjEjprFydJ0nbVqMnHOtiuIfax2k9Pk2UfOX3RX89vhRynaJ+yyHuqDiNy9Rrse4bGwmPC/4zzqDKcVOkEeS3d3bpEYZCM3GTDiiuxrsKJd9ZuCcdGinhlQSROM1lO0VKLLe5bXHgF3wOFGyykiNCn7mRXxI+z/ALs//8QAKxABAAECBAUDBQEBAQAAAAAAAREAITFBUWFxgZGh8BAwwSBAsdHx4WBw/9oACAEBAAE/If8AwwURwvHJhzil62AtR988di053EJCSxsaE/aJ+hDgK2QkPC09+FLMefA/mjKfIL4VPbpce9FDqFLIEB9mvozsAYrWjjnS8IMqF2BedDvoUaqK0lfBw7/YIwdCKqNdq/vftX979q/vftX979qg+AgwCSeVI3lHc7qTyNagFxpGq7BerSFljcqtmWjzJI50DBP8RNEWfJg2dH35kedjlaMV5H8V5H8UbG+lQFWMqCMigyAp+l+chbtFNyKzOVhfw61c6UIhxt7bpTA3lFWqxWLgZQcmgFrg2hmUOgi5v+tyfemeC0/QzMEHcb6GYvxlB+A9YgiiONzEKZsa06m5g1EVYyU4vKHV96Yfq0fRG9E5F4jRpZwGnM9Lhg84r0RadmGX4D6IvkQvFu9TTQpbjNKB19+YHMsyTxMHnU/wYyNBm7O1AwSrI0SSXznjfNFD0XIrQIeYj6ACYuNqPfsqTIU4Ld6T7ruBkpXVtXjHxRcJz6iCSpPIV2fEx5P+Vg70jlMSvBf3snLelkQv3yeK7lwpL4iUK1KMQMJz48TpVhRoLoomOECd7Dfsp6rcbVJVNGZrdCxxfsRfiLgRlO6pr3JuQHs9axrPTaa1ebbDhSV8MYjwwPL0Dv2Z/GpqyuZ4DA2OtGBYPADAPbUM5sBME51H53enHJl9uRnY6fQ/RSJr8gnKg5Xk4x6jgCYiVvyVP+KKA+iPedAtGtJvzLdKRpiTojkmykkEueZd/igBBKsBQjxetU4LY56U8hshKtWGhBcflK8I9BmOCGXzKeXwSSwXvxo/BZCANakmagcDTSilq82ZicmuvuzGhbeNP1T5J4EvPydmkQjCZlDxbJ0pC6QOVaRSsx32ZG2LnQABAWA9ceL42pJsBZfb401oQCQLPTedqFUMOAMD3gbJA5E4UsJf4RR2qFC2TtFXfCF71b9/pxk94WiIzBMFY0rmPuaDN40BOOmH2+PF8bUs1WZs3g0eJU+2Kui21/yjgEkJE1+1QaOiVgw4lP7VGPIhflSChh2TErEUA0dCamFFgOQS6ttP5/1n/9oADAMBAAIAAwAAABDzzzzzzzzzzzzzzzzzzzzzzzzzzzzzzzzznvTzzzzzzzzz81z7zzzzzykEQiND3zzzzzzju+3ztTzzzzzznKAT633zzzzzD/zE5e5zzzzzylww62Ffzzzzzzxx7z/Frzzzzzzzzzyw93zzzzzzzzzzzzzzzzzzzzzzzzzzzzzz/8QAKREAAgECBAUEAwEAAAAAAAAAAREAITFBUWHBECAwcaGR0eHwQFCx8f/aAAgBAwEBPxD9CMahKSCT2+YlVPpPJqTYRqafbCBKCfuktzkxk8TQ8RgsGijIw2EAB1eggyUtIMGYPOBpK8u5xnWUV3luOBYlEIRw35yRK+kHvayvDLWcDAUCmGoj8BHekMCt3MOX/JzDMAs4IRjwQZfuiwSvh6iHmbOegC4tCBpsjKEHmJWsveAZEXsYAMGSPUw8dIGfx0ByEe8MMYPbh5WxlbIAVG/vBWwi46YdbvAELCMwR/Pz/wD/xAAqEQACAQIEBAYDAQAAAAAAAAABEQAhMUFRYXEgsdHwEDCBkaHhQFDB8f/aAAgBAgEBPxD9CjTOkGMBuPRyoDRXlJygXPeMqPZMfU97QxWA0HVwl1PGEA1bGao7bzF6W6uWFZ8unIQ6Vmcwz7x9IDrUQlCiONKWYvkNxFqWYj0snI+BAHQ1gD3A/H+8YgymsvrM6iCkoYjLURyKpHQjtx2EdQGIHhQFhi4EEpzm/EEJKhrqBXg5Tf0x7lyO8o4mh+oSDX3PHmAoevpBYUJxFXvBelYJD1jIMYn+RtQJ/IhRxAH2EFtTNafZ8gkyDYqBGCNz4dtqINFGgf50hm7FQOf35ZGlkKsNbhLiKgjNV3/P/8QAJhABAAEDAwMFAQEBAAAAAAAAAREAITFBUWFxgZEQIDBAobFgcP/aAAgBAQABPxD/AIYWEp6McjeLmjF2yqcqkeVJSRkFDv8ApU9t9gyCAQhj9QqhRUjVXwGVsUAKrgjE73i+17iniSJVU3dS92oNIJPJva14R8ysah5GKxoRuKB0APpwyhsMVDgAWlvoLjGSHVbyYO60OKE9lOXVQw3U2FLcGSWa7OK6Ily+hLN+pS0mcL7SVKlSmoKTDgQUmQxzRekNQhyuYjYsKoAtNw5VoBTsND4soDS/3XBoAFimZITG84gKW8CmhdB/FUdyrE4ZYcF+Bh+fYYbTNpIgYYvHr27P0tooMgAVV2otvj2GgOAChGgLU4u1EChAGaC5hmNEa1CFc+crhYQITqLxFPCK2Kyomq3lpGTQyHICUs6QmU7Lhts3MiMNChcuUGbb5tQkyP0thLhaVQ58lZqOs9bor4Xb1e7mgrdHdxizFxLVM1G4SKRoGIOjhKdy+Lckddbttz5tkc7tEgjiSKwxYEz5lfg78kRH0F/l6Qh++gdASbCHuO/sQs3PM2fI7NKeITQAfJUIiAGH59i/2FG8cTwEoaSAgrYxntCXGIsk/BUCRHJRwVyYXfJHvRdQxSA6o4cxynszTRllLlHjaWpS5BUEwXtEjwfKocKozKjNVZV9OJYnhNOhuwlTbvXQXV7kLzK3hmFfWA9yk1z/AAxTNYJdWbS4ceA9xDMkt10KeHtCsiFxEESgFdFGMMxffL5VFUKKYcTl4Kf154uhibhBi7imNcbKcvBoBYACxUZklSgjnS5teEn6AHKNgTMaAiGwULntGeswB7qQCJI5GnkC39buotxJc6oDlDuzyfKfRxoRMjlgwctqQgMFeXBEbjq6jCFEipqAFgAAD42z4WTaFxEImtKEQTI1X/yYYtCVIIu7b2FIlYETQ7URLLCyxZnd/D6i2SBkTkaQPrM/LrdWECxi7FvlzQYy7lSfKMMxLWhAADa1ltiVRwyjmSbiYVkXIlm5K0WoSGGm3VsFSOTiS7Om9JAbq0kY5khMqrlWm3pgAVm7T9Cz800lEgQXZ2ouOsY2krpf5pA+QwRKlsAXmlz1HGWQCyZuvELEwKUtEObjZkHVYYY+RrjkIwoJ8mirJzCOKkVvpMPFOYkvSNnSJCNYo9FXZaFXZi9gAuvBRjVHglx6Gz2AFkExgCANAPZm/wCce187x57NiggRBCMq4eyXYYYUCmQB0+ZzViL2RVk4adraoCekqKCLMevNftREFZTNmVnHtZnWJCZwCsi3DVAVI7mV6Wbjdy3butBC6QJ34BA5GAB9jN/5iSJsAw3ZIwAQDK4stgN1gmgOYIOdhkiQJZEvP1WNOWojKLXaQI4JhSxrdapr06jIQ6NTc1vEXHHUGYm0wX7RQsuGUzK0uYs/1f8A/9k=;clipPath=inset(19.5% 22.5% 15.5% 17.5%);" parent="1" vertex="1">
          <mxGeometry x="591.54" y="720" width="36.92" height="40" as="geometry" />
        </mxCell>
        <mxCell id="vgPxkIQjYGgDSlGmg2nc-24" value="" style="curved=1;endArrow=classic;html=1;rounded=0;startArrow=classic;startFill=1;entryX=0;entryY=0.5;entryDx=0;entryDy=0;" parent="1" target="vgPxkIQjYGgDSlGmg2nc-20" edge="1">
          <mxGeometry width="50" height="50" relative="1" as="geometry">
            <mxPoint x="440" y="675" as="sourcePoint" />
            <mxPoint x="490" y="625" as="targetPoint" />
            <Array as="points">
              <mxPoint x="480" y="660" />
              <mxPoint x="530" y="670" />
            </Array>
          </mxGeometry>
        </mxCell>
        <mxCell id="vgPxkIQjYGgDSlGmg2nc-25" value="Scrum Team" style="text;html=1;strokeColor=none;fillColor=none;align=center;verticalAlign=middle;whiteSpace=wrap;rounded=0;fontStyle=1;fontSize=14;fontColor=#000000;rotation=-90;" parent="1" vertex="1">
          <mxGeometry x="130" y="795" width="90" height="30" as="geometry" />
        </mxCell>
      </root>
    </mxGraphModel>
  </diagram>
</mxfile>
